#!OML:ASF F:\VICON\USERDATA\INSTALL\rory3\rory3.ASF
:FULLY-SPECIFIED
:DEGREES
387
root 0.263859 17.8208 41.4438 -4.47307 -4.26634 -0.898382
lowerback 10.5321 1.63781 0.413924
upperback 0.515059 2.26812 0.750986
thorax -5.38348 1.11531 0.211376
lowerneck -14.9722 -3.06379 -2.76598
upperneck 19.9195 -4.11731 2.41501
head 8.80808 -1.88959 0.784446
rclavicle 4.27076e-016 7.45443e-015
rhumerus -25.3795 -16.3436 -81.4399
rradius 31.7718
rwrist 7.62765
rhand -19.2114 24.7953
rfingers 7.12502
rthumb 7.10109 -5.06553
lclavicle 4.27076e-016 7.45443e-015
lhumerus -35.7603 10.4913 78.232
lradius 19.0214
lwrist 3.9671
lhand -30.6567 20.0748
lfingers 7.12502
lthumb -3.95165 50.0179
rfemur -11.4269 -4.92827 21.6567
rtibia 73.3531
rfoot 11.2529 -9.73212
rtoes 22.8965
lfemur -13.7597 -1.04553 -22.9554
ltibia 29.7886
lfoot -8.70224 -1.61872
ltoes 3.61999
388
root 0.26318 17.8363 41.6135 -4.49282 -4.3548 -1.09955
lowerback 10.6488 1.58924 0.480921
upperback 0.472434 2.22005 0.872024
thorax -5.49596 1.09086 0.303144
lowerneck -14.9883 -3.08139 -2.7851
upperneck 20.0258 -4.12928 2.36722
head 8.84712 -1.90124 0.769374
rclavicle 7.20594e-016 -2.03754e-014
rhumerus -25.8666 -16.5572 -81.4358
rradius 31.8614
rwrist 7.81317
rhand -19.2186 24.4719
rfingers 7.12502
rthumb 7.09413 -5.38925
lclavicle 7.20594e-016 -2.03754e-014
lhumerus -35.3644 11.2966 77.7294
lradius 18.921
lwrist 2.29113
lhand -34.0597 14.6971
lfingers 7.12502
lthumb -7.23717 44.5534
rfemur -12.8166 -5.15553 22.0228
rtibia 73.9918
rfoot 9.37061 -10.2594
rtoes 25.2597
lfemur -12.9544 -0.940989 -22.7662
ltibia 29.5138
lfoot -9.13307 -1.52564
ltoes 4.00301
389
root 0.267968 17.8483 41.7809 -4.40899 -4.13244 -0.965148
lowerback 10.5145 1.45452 0.319941
upperback 0.447594 2.02021 0.861768
thorax -5.45103 0.996788 0.416451
lowerneck -14.7338 -3.09075 -2.9484
upperneck 19.9328 -4.15689 2.58827
head 8.77834 -1.90626 0.8716
rclavicle -8.11911e-015 -9.0447e-015
rhumerus -26.3501 -16.7014 -81.4674
rradius 32.0007
rwrist 7.95407
rhand -19.1962 24.3567
rfingers 7.12502
rthumb 7.1158 -5.50364
lclavicle -8.11911e-015 -9.0447e-015
lhumerus -34.8614 11.4767 77.5392
lradius 18.9724
lwrist 1.09128
lhand -35.9281 10.2531
lfingers 7.12502
lthumb -9.04038 40.0394
rfemur -14.2649 -5.54841 21.9356
rtibia 74.4116
rfoot 7.37552 -10.1422
rtoes 25.1316
lfemur -12.4096 -1.10663 -23.0062
ltibia 29.3631
lfoot -9.60785 -1.46445
ltoes 4.57078
390
root 0.270822 17.8623 41.9447 -4.40333 -3.96039 -1.16861
lowerback 10.5278 1.36339 0.551045
upperback 0.510991 1.93103 0.952598
thorax -5.38681 0.948396 0.3953
lowerneck -14.9913 -3.15287 -2.92386
upperneck 20.3486 -4.19416 2.32594
head 8.96255 -1.94529 0.769193
rclavicle -1.9981e-014 2.78299e-015
rhumerus -26.6562 -16.801 -81.4656
rradius 32.1509
rwrist 7.80809
rhand -19.197 24.7442
rfingers 7.12502
rthumb 7.11503 -5.1162
lclavicle -1.9981e-014 2.78299e-015
lhumerus -34.2561 10.8321 77.9258
lradius 19.3251
lwrist 1.06112
lhand -36.0497 9.92263
lfingers 7.12502
lthumb -9.15778 39.7038
rfemur -15.5223 -5.70201 22.2849
rtibia 74.535
rfoot 4.58417 -9.97657
rtoes 20.7492
lfemur -11.7129 -1.37252 -22.8778
ltibia 29.1847
lfoot -10.0845 -1.18413
ltoes 4.0387
391
root 0.273547 17.8746 42.1113 -4.4675 -3.81417 -1.38658
lowerback 10.618 1.26533 0.745043
upperback 0.605095 1.83119 1.08995
thorax -5.33663 0.896243 0.443669
lowerneck -15.1062 -3.15698 -3.07359
upperneck 20.4053 -4.16171 2.33005
head 9.00584 -1.93983 0.797521
rclavicle -8.74031e-015 -3.37934e-015
rhumerus -26.9222 -16.6967 -81.4803
rradius 32.4016
rwrist 7.29778
rhand -18.9157 24.4381
rfingers 7.12502
rthumb 7.38654 -5.41296
lclavicle -8.74031e-015 -3.37934e-015
lhumerus -33.7097 10.3015 78.3086
lradius 19.802
lwrist 1.20479
lhand -36.0902 10.7437
lfingers 7.12502
lthumb -9.19684 40.5231
rfemur -16.6605 -5.78547 22.6819
rtibia 74.4859
rfoot 3.22936 -9.47719
rtoes 19.7269
lfemur -10.7845 -1.62644 -22.7368
ltibia 28.8245
lfoot -10.381 -0.925425
ltoes 3.8648
392
root 0.276747 17.8869 42.2906 -4.63436 -3.60309 -1.17133
lowerback 10.7183 1.14392 0.47666
upperback 0.62434 1.63981 1.11268
thorax -5.37992 0.808572 0.64543
lowerneck -14.7813 -3.08027 -3.20157
upperneck 20.1755 -4.04153 2.39182
head 8.86799 -1.89084 0.859645
rclavicle 9.88022e-015 -5.56597e-015
rhumerus -27.3177 -16.5423 -81.4442
rradius 32.4057
rwrist 7.01138
rhand -18.7534 24.1332
rfingers 7.12502
rthumb 7.54315 -5.71234
lclavicle 9.88022e-015 -5.56597e-015
lhumerus -33.3422 9.60315 78.6869
lradius 20.1896
lwrist 1.62233
lhand -34.582 13.0302
lfingers 7.12502
lthumb -7.74131 42.8685
rfemur -17.5698 -5.96493 22.4844
rtibia 74.2707
rfoot 1.97223 -8.69614
rtoes 18.2698
lfemur -9.93821 -1.79695 -23.0875
ltibia 28.6772
lfoot -10.7411 -0.788141
ltoes 4.49267
